<?xml version="1.0" encoding="utf-8"?>
<!-- Generator: Adobe Illustrator 24.3.0, SVG Export Plug-In . SVG Version: 6.00 Build 0)  -->
<svg version="1.1" id="Layer_1" xmlns="http://www.w3.org/2000/svg" xmlns:xlink="http://www.w3.org/1999/xlink" x="0px" y="0px"
	 viewBox="0 0 180 180" enable-background="new 0 0 180 180" xml:space="preserve">
<g>
	<g id="XMLID_40_">
		<path fill="#ADEBF6" d="M90,25.377c-35.69,0-64.622,28.933-64.622,64.623c0,35.689,28.932,64.622,64.622,64.622
			c35.689,0,64.622-28.933,64.622-64.622C154.622,54.31,125.689,25.377,90,25.377z"/>
	</g>
	<g>
		<g>
			<path fill="#FFCD50" d="M85.694,49.622c-1.908,0-3.457,1.548-3.457,3.456c0,1.909,1.549,3.457,3.457,3.457
				c1.909,0,3.457-1.548,3.457-3.457C89.151,51.169,87.604,49.622,85.694,49.622z"/>
		</g>
		<g>
			<g>
				<path fill-rule="evenodd" clip-rule="evenodd" fill="#FFDB76" d="M85.696,48.775c-2.375,0-4.303,1.926-4.303,4.303
					c0,2.377,1.928,4.303,4.303,4.303c2.377,0,4.304-1.926,4.304-4.303C90,50.701,88.073,48.775,85.696,48.775z M85.696,56.506
					c-1.894,0-3.429-1.535-3.429-3.429c0-1.893,1.535-3.429,3.429-3.429c1.895,0,3.429,1.535,3.429,3.429
					C89.125,54.971,87.591,56.506,85.696,56.506z"/>
			</g>
		</g>
		<g>
			<polygon fill="#FFFFFF" points="87.308,50.984 86.49,50.984 85.694,52.367 84.899,50.984 84.081,50.984 85.286,53.078 
				85.286,53.294 84.834,53.294 84.834,53.45 85.286,53.45 85.286,53.676 84.834,53.676 84.834,53.833 85.286,53.833 85.286,55.171 
				86.104,55.171 86.104,53.833 86.556,53.833 86.556,53.676 86.104,53.676 86.104,53.45 86.556,53.45 86.556,53.294 86.104,53.294 
				86.104,53.078 			"/>
		</g>
	</g>
	<g>
		<g>
			<path fill="#FFCD50" d="M111.052,29.653c-3.717,0-6.73,3.014-6.73,6.73c0,3.718,3.014,6.731,6.73,6.731
				c3.718,0,6.73-3.014,6.73-6.731C117.782,32.667,114.77,29.653,111.052,29.653z"/>
		</g>
		<g>
			<g>
				<path fill-rule="evenodd" clip-rule="evenodd" fill="#FFDB76" d="M111.056,28.005c-4.627,0-8.377,3.751-8.377,8.377
					c0,4.628,3.75,8.378,8.377,8.378c4.628,0,8.379-3.75,8.379-8.378C119.435,31.756,115.684,28.005,111.056,28.005z M111.056,43.06
					c-3.688,0-6.676-2.99-6.676-6.678c0-3.686,2.988-6.676,6.676-6.676s6.677,2.99,6.677,6.676
					C117.732,40.07,114.743,43.06,111.056,43.06z"/>
			</g>
		</g>
		<g>
			<path fill="#FFFFFF" d="M111.812,39.308c-1.371,0-2.521-0.951-2.837-2.228h3.423v-0.53h-3.502
				c-0.003-0.055-0.008-0.11-0.008-0.168c0-0.235,0.031-0.464,0.084-0.683h3.426v-0.532h-3.242c0.463-1.006,1.478-1.71,2.656-1.71
				c0.586,0,1.151,0.173,1.635,0.5l1.312-1.943c-0.873-0.589-1.892-0.9-2.947-0.9c-2.486,0-4.572,1.733-5.123,4.054h-0.731V35.7
				h0.635c-0.03,0.224-0.05,0.45-0.05,0.683c0,0.058,0.006,0.112,0.008,0.168h-0.593v0.53h0.637c0.343,2.577,2.55,4.572,5.218,4.572
				c1.205,0,2.383-0.418,3.316-1.174l-1.477-1.822C113.126,39.083,112.49,39.308,111.812,39.308z"/>
		</g>
	</g>
	<g>
		<g>
			<path fill="#FFFFFF" d="M36.785,123.73c0,1.458,1.155,2.641,2.579,2.641h101.27c1.426,0,2.58-1.183,2.58-2.641v-2.642H36.785
				V123.73z"/>
		</g>
		<g>
			<path fill="#686868" d="M132.793,59.59H47.206c-3.037,0-5.498,2.52-5.498,5.627v55.871h96.582V65.217
				C138.29,62.11,135.829,59.59,132.793,59.59z"/>
		</g>
		<g>
			<rect x="46.505" y="64.923" fill="#CCCBC9" width="86.989" height="51.845"/>
		</g>
		<g>
			<path fill="#FFFFFF" d="M90,60.83c-0.784,0-1.419,0.651-1.419,1.452c0,0.803,0.635,1.453,1.419,1.453s1.419-0.65,1.419-1.453
				C91.419,61.481,90.784,60.83,90,60.83z"/>
		</g>
	</g>
	<g>
		<g>
			<path fill-rule="evenodd" clip-rule="evenodd" fill="#FF916E" d="M61.583,45.135H33.769c-0.889,0-1.615,0.727-1.615,1.615v45.728
				c0,0.889,0.727,1.615,1.615,1.615h27.814c0.889,0,1.616-0.727,1.616-1.615V46.75C63.199,45.862,62.472,45.135,61.583,45.135z"/>
		</g>
		<g>
			<rect x="53.951" y="45.135" fill-rule="evenodd" clip-rule="evenodd" fill="#333333" width="5.757" height="48.959"/>
		</g>
		<g>
			<rect x="35.016" y="48.602" fill-rule="evenodd" clip-rule="evenodd" fill="#757575" width="1.952" height="28.873"/>
		</g>
		<g>
			<rect x="41.544" y="48.602" fill-rule="evenodd" clip-rule="evenodd" fill="#757575" width="1.952" height="28.873"/>
		</g>
		<g>
			<rect x="38.28" y="57.38" fill-rule="evenodd" clip-rule="evenodd" fill="#757575" width="1.951" height="20.095"/>
		</g>
		<g>
			<path fill-rule="evenodd" clip-rule="evenodd" fill="#F2F2F2" d="M42.077,79.925h-6.17c-0.491,0-0.892,0.4-0.892,0.892v9.342
				c0,0.49,0.4,0.892,0.892,0.892h6.17c0.49,0,0.893-0.401,0.893-0.892v-9.342C42.97,80.326,42.567,79.925,42.077,79.925z"/>
		</g>
	</g>
	<g>
		<g>
			<polygon fill-rule="evenodd" clip-rule="evenodd" fill="#757575" points="113.987,100.574 117.995,100.574 117.995,88.957 
				113.987,92.966 			"/>
		</g>
		<g>
			<polygon fill-rule="evenodd" clip-rule="evenodd" fill="#757575" points="134.765,100.574 138.772,100.574 138.772,92.966 
				134.765,88.957 			"/>
		</g>
		<g>
			<polygon fill-rule="evenodd" clip-rule="evenodd" fill="#333333" points="117.995,88.957 113.987,92.966 138.772,92.966 
				134.765,88.957 			"/>
		</g>
		<g>
			<polygon fill-rule="evenodd" clip-rule="evenodd" fill="#333333" points="105.649,98.855 101.368,138.765 151.392,138.765 
				147.109,98.855 			"/>
		</g>
		<g>
			<g>
				<rect x="133.278" y="98.855" fill="none" width="2.607" height="39.91"/>
			</g>
			<g>
				<rect x="129.161" y="98.855" fill="none" width="2.609" height="39.91"/>
			</g>
			<g>
				<polygon fill="none" points="149.741,138.765 151.392,138.765 149.741,123.382 				"/>
			</g>
			<g>
				<rect x="120.93" y="98.855" fill="none" width="2.608" height="39.91"/>
			</g>
			<g>
				<rect x="141.51" y="98.855" fill="none" width="2.608" height="39.91"/>
			</g>
			<g>
				<rect x="137.394" y="98.855" fill="none" width="2.609" height="39.91"/>
			</g>
			<g>
				<polygon fill="none" points="145.626,98.855 145.626,138.765 148.233,138.765 148.233,109.336 147.109,98.855 				"/>
			</g>
			<g>
				<rect x="125.046" y="98.855" fill="none" width="2.607" height="39.91"/>
			</g>
			<g>
				<polygon fill="none" points="102.959,138.765 102.959,123.935 101.368,138.765 				"/>
			</g>
			<g>
				<polygon fill="none" points="104.466,109.887 104.466,138.765 107.075,138.765 107.075,98.855 105.649,98.855 				"/>
			</g>
			<g>
				<rect x="116.813" y="98.855" fill="none" width="2.609" height="39.91"/>
			</g>
			<g>
				<rect x="108.582" y="98.855" fill="none" width="2.608" height="39.91"/>
			</g>
			<g>
				<rect x="112.698" y="98.855" fill="none" width="2.608" height="39.91"/>
			</g>
			<g>
				<polygon fill="#333333" points="102.959,138.765 104.466,138.765 104.466,109.887 102.959,123.935 				"/>
			</g>
			<g>
				<rect x="107.075" y="98.855" fill="#333333" width="1.507" height="39.91"/>
			</g>
			<g>
				<rect x="111.19" y="98.855" fill="#333333" width="1.508" height="39.91"/>
			</g>
			<g>
				<rect x="115.307" y="98.855" fill="#333333" width="1.507" height="39.91"/>
			</g>
			<g>
				<rect x="119.423" y="98.855" fill="#333333" width="1.507" height="39.91"/>
			</g>
			<g>
				<rect x="127.653" y="98.855" fill="#333333" width="1.508" height="39.91"/>
			</g>
			<g>
				<rect x="131.77" y="98.855" fill="#333333" width="1.508" height="39.91"/>
			</g>
			<g>
				<rect x="123.538" y="98.855" fill="#333333" width="1.508" height="39.91"/>
			</g>
			<g>
				<rect x="135.886" y="98.855" fill="#333333" width="1.508" height="39.91"/>
			</g>
			<g>
				<rect x="144.118" y="98.855" fill="#333333" width="1.508" height="39.91"/>
			</g>
			<g>
				<polygon fill="#333333" points="148.233,138.765 149.741,138.765 149.741,123.382 148.233,109.336 				"/>
			</g>
			<g>
				<rect x="140.003" y="98.855" fill="#333333" width="1.507" height="39.91"/>
			</g>
		</g>
	</g>
	<g>
		<g>
			<path fill="#FFCD50" d="M105.694,57.956c-2.961,0-5.361,2.401-5.361,5.361c0,2.961,2.4,5.361,5.361,5.361
				c2.962,0,5.361-2.4,5.361-5.361C111.056,60.357,108.656,57.956,105.694,57.956z"/>
		</g>
		<g>
			<path fill-rule="evenodd" clip-rule="evenodd" fill="#FFFFFF" d="M105.88,62.791c-0.826-0.251-1.005-0.379-1.005-0.728
				c0-0.352,0.563-0.445,0.896-0.445c0.317,0,0.692,0.1,0.917,0.244c0.089,0.059,0.208,0.032,0.267-0.057l0.419-0.65
				c0.059-0.089,0.033-0.208-0.058-0.266c-0.31-0.2-0.717-0.343-1.138-0.401v-0.399c0-0.107-0.088-0.193-0.193-0.193h-0.773
				c-0.105,0-0.191,0.087-0.191,0.193v0.463c-0.809,0.214-1.305,0.781-1.305,1.512c0,1.282,1.1,1.616,1.829,1.835
				c0.782,0.238,0.94,0.346,0.937,0.64c0,0.327-0.537,0.413-0.855,0.413c-0.391,0-0.83-0.175-1.068-0.427
				c-0.035-0.038-0.083-0.06-0.134-0.062c-0.052-0.001-0.103,0.02-0.139,0.054l-0.562,0.531c-0.078,0.073-0.081,0.195-0.008,0.273
				c0.328,0.346,0.795,0.602,1.305,0.719v0.44c0,0.107,0.086,0.194,0.191,0.194h0.773c0.105,0,0.193-0.087,0.193-0.194v-0.42
				c0.894-0.167,1.463-0.75,1.463-1.518C107.651,63.327,106.585,63.004,105.88,62.791z"/>
		</g>
		<g>
			<g>
				<path fill-rule="evenodd" clip-rule="evenodd" fill="#FFDB76" d="M105.698,56.642c-3.686,0-6.674,2.988-6.674,6.675
					c0,3.686,2.987,6.673,6.674,6.673c3.686,0,6.674-2.987,6.674-6.673C112.372,59.63,109.384,56.642,105.698,56.642z
					 M105.698,68.635c-2.938,0-5.319-2.381-5.319-5.318c0-2.938,2.382-5.319,5.319-5.319c2.937,0,5.318,2.382,5.318,5.319
					C111.017,66.254,108.635,68.635,105.698,68.635z"/>
			</g>
		</g>
	</g>
	<g>
		<g>
			<path fill="#FFCD50" d="M122.997,73.873c-2.668,0-4.83,2.162-4.83,4.829s2.162,4.83,4.83,4.83c2.667,0,4.829-2.163,4.829-4.83
				S125.664,73.873,122.997,73.873z"/>
		</g>
		<g>
			<g>
				<path fill-rule="evenodd" clip-rule="evenodd" fill="#FFDB76" d="M123,72.69c-3.321,0-6.013,2.692-6.013,6.013
					c0,3.321,2.691,6.012,6.013,6.012c3.319,0,6.012-2.69,6.012-6.012C129.012,75.382,126.319,72.69,123,72.69z M123,83.494
					c-2.646,0-4.792-2.145-4.792-4.791c0-2.646,2.146-4.791,4.792-4.791c2.646,0,4.79,2.146,4.79,4.791
					C127.79,81.349,125.646,83.494,123,83.494z"/>
			</g>
		</g>
		<g>
			<polygon fill="#FFFFFF" points="125.251,75.778 124.108,75.778 122.997,77.711 121.884,75.778 120.742,75.778 122.426,78.703 
				122.426,79.005 121.794,79.005 121.794,79.224 122.426,79.224 122.426,79.538 121.794,79.538 121.794,79.757 122.426,79.757 
				122.426,81.628 123.567,81.628 123.567,79.757 124.198,79.757 124.198,79.538 123.567,79.538 123.567,79.224 124.198,79.224 
				124.198,79.005 123.567,79.005 123.567,78.703 			"/>
		</g>
	</g>
	<g>
		<g>
			<path fill="#333333" d="M82.162,135.996h-9.659c-0.212,0-0.385,0.172-0.385,0.385c0,0.212,0.173,0.383,0.385,0.383h9.659
				c0.212,0,0.384-0.171,0.384-0.383C82.546,136.167,82.374,135.996,82.162,135.996z"/>
		</g>
		<g>
			<path fill="#333333" d="M85.521,133.365H83.96c-0.212,0-0.384,0.172-0.384,0.384c0,0.213,0.172,0.385,0.384,0.385h1.561
				c0.211,0,0.383-0.172,0.383-0.385C85.903,133.537,85.731,133.365,85.521,133.365z"/>
		</g>
		<g>
			<path fill="#333333" d="M87.378,139.428h-1.56c-0.212,0-0.384,0.171-0.384,0.383c0,0.213,0.172,0.385,0.384,0.385h1.56
				c0.213,0,0.385-0.172,0.385-0.385C87.763,139.599,87.591,139.428,87.378,139.428z"/>
		</g>
		<g>
			<path fill="#333333" d="M82.162,133.365H76.28c-0.212,0-0.384,0.172-0.384,0.384c0,0.213,0.172,0.385,0.384,0.385h5.882
				c0.212,0,0.384-0.172,0.384-0.385C82.546,133.537,82.374,133.365,82.162,133.365z"/>
		</g>
		<g>
			<path fill="#333333" d="M90.929,130.691h-7.102c-0.211,0-0.383,0.171-0.383,0.383c0,0.213,0.172,0.385,0.383,0.385h7.102
				c0.213,0,0.385-0.172,0.385-0.385C91.313,130.862,91.142,130.691,90.929,130.691z"/>
		</g>
	</g>
	<g>
		<g>
			<path fill="#333333" d="M81.841,39.244h-9.66c-0.212,0-0.383,0.172-0.383,0.384c0,0.212,0.171,0.385,0.383,0.385h9.66
				c0.212,0,0.383-0.173,0.383-0.385C82.224,39.416,82.053,39.244,81.841,39.244z"/>
		</g>
		<g>
			<path fill="#333333" d="M85.198,36.613h-1.56c-0.211,0-0.384,0.171-0.384,0.384c0,0.211,0.173,0.384,0.384,0.384h1.56
				c0.211,0,0.385-0.173,0.385-0.384C85.583,36.784,85.409,36.613,85.198,36.613z"/>
		</g>
		<g>
			<path fill="#333333" d="M87.057,42.675h-1.56c-0.213,0-0.385,0.173-0.385,0.385c0,0.211,0.172,0.384,0.385,0.384h1.56
				c0.212,0,0.384-0.173,0.384-0.384C87.44,42.848,87.269,42.675,87.057,42.675z"/>
		</g>
		<g>
			<path fill="#333333" d="M81.841,36.613h-5.883c-0.211,0-0.383,0.171-0.383,0.384c0,0.211,0.172,0.384,0.383,0.384h5.883
				c0.212,0,0.383-0.173,0.383-0.384C82.224,36.784,82.053,36.613,81.841,36.613z"/>
		</g>
		<g>
			<path fill="#333333" d="M90.607,33.938h-7.101c-0.213,0-0.385,0.172-0.385,0.384s0.172,0.385,0.385,0.385h7.101
				c0.212,0,0.384-0.173,0.384-0.385S90.819,33.938,90.607,33.938z"/>
		</g>
	</g>
	<g>
		<g>
			<path fill="#333333" d="M120.622,52.954h-9.659c-0.212,0-0.384,0.173-0.384,0.384c0,0.213,0.172,0.385,0.384,0.385h9.659
				c0.213,0,0.385-0.172,0.385-0.385C121.007,53.126,120.835,52.954,120.622,52.954z"/>
		</g>
		<g>
			<path fill="#333333" d="M123.979,50.323h-1.56c-0.212,0-0.384,0.172-0.384,0.384c0,0.212,0.172,0.384,0.384,0.384h1.56
				c0.213,0,0.385-0.172,0.385-0.384C124.364,50.495,124.192,50.323,123.979,50.323z"/>
		</g>
		<g>
			<path fill="#333333" d="M125.839,56.386h-1.561c-0.211,0-0.383,0.172-0.383,0.385c0,0.211,0.172,0.383,0.383,0.383h1.561
				c0.211,0,0.385-0.172,0.385-0.383C126.224,56.558,126.05,56.386,125.839,56.386z"/>
		</g>
		<g>
			<path fill="#333333" d="M120.622,50.323h-5.882c-0.212,0-0.384,0.172-0.384,0.384c0,0.212,0.172,0.384,0.384,0.384h5.882
				c0.213,0,0.385-0.172,0.385-0.384C121.007,50.495,120.835,50.323,120.622,50.323z"/>
		</g>
		<g>
			<path fill="#333333" d="M129.389,47.648h-7.101c-0.212,0-0.383,0.172-0.383,0.384c0,0.212,0.171,0.385,0.383,0.385h7.101
				c0.212,0,0.384-0.173,0.384-0.385C129.772,47.82,129.601,47.648,129.389,47.648z"/>
		</g>
	</g>
	<g>
		<g>
			<path fill="#333333" d="M94.735,136.943h-3.689c-0.212,0-0.384,0.172-0.384,0.383c0,0.213,0.172,0.385,0.384,0.385h3.689
				c0.212,0,0.384-0.172,0.384-0.385C95.119,137.115,94.947,136.943,94.735,136.943z"/>
		</g>
		<g>
			<path fill="#333333" d="M92.811,134.777c-0.212,0-0.384,0.173-0.384,0.385v4.17c0,0.212,0.172,0.384,0.384,0.384
				c0.212,0,0.384-0.172,0.384-0.384v-4.17C93.194,134.95,93.022,134.777,92.811,134.777z"/>
		</g>
	</g>
</g>
</svg>
